<svg class="logo-cegep" width="186" height="60" viewBox="0 0 186 60" fill="none" xmlns="http://www.w3.org/2000/svg">
<path d="M46.9425 3.90664C46.9428 3.2426 46.7776 2.5701 46.4219 1.95388C45.3431 0.0852242 42.9538 -0.554737 41.0852 0.523724L23.5052 10.6742L5.92433 0.523724C4.05587 -0.554737 1.6664 0.0852242 0.587498 1.95388C-0.491236 3.82254 0.148889 6.21177 2.01748 7.29057L21.5518 18.5686C22.7605 19.2666 24.25 19.2666 25.4587 18.5686L39.1324 10.6742V36.8842C39.1324 39.0418 40.8817 40.7911 43.0393 40.7911C45.1969 40.7911 46.9462 39.0418 46.9462 36.8842C46.9462 36.8842 46.9428 3.90664 46.9425 3.90664ZM25.4587 44.7797L5.92433 33.5016C4.05587 32.4228 1.6664 33.0628 0.587498 34.9314C-0.491236 36.8001 0.148889 39.1893 2.01748 40.2681L21.5518 51.5462C23.4201 52.625 25.8097 51.985 26.8885 50.1164C27.9673 48.2478 27.327 45.8586 25.4587 44.7797ZM26.8885 33.6274C25.8097 35.4964 23.4201 36.1361 21.5518 35.0576L2.01748 23.7795C0.148889 22.7007 -0.491236 20.3111 0.587498 18.4425C1.6664 16.5738 4.05587 15.9339 5.92433 17.0127L25.4587 28.2907C27.327 29.3696 27.9673 31.7591 26.8885 33.6274Z" fill="#8DC640"></path>
<path d="M132.893 58.8314V59.8865H127.86V53.1748H132.759V54.2201V54.23H129.106V55.9649H132.347V56.9908H129.106V58.8314H132.893Z" fill="#14B1E7"></path>
<path d="M105.64 58.8249H104V54.2228H105.64C107.031 54.2228 108.104 55.0242 108.104 56.5238C108.104 58.0236 107.031 58.8249 105.64 58.8249ZM105.688 53.1748C104.073 53.1748 102.754 53.1748 102.754 53.1748V59.8867C102.754 59.8867 104.073 59.8867 105.688 59.8867C107.744 59.8867 109.35 58.6577 109.35 56.5309C109.35 54.4042 107.744 53.1748 105.688 53.1748Z" fill="#14B1E7"></path>
<path d="M114.877 57.3551L116.181 54.3198L117.485 57.3551H114.877ZM118.573 59.8865H119.819L116.936 53.1748H115.426L112.542 59.8865H113.789L114.436 58.381H117.926L118.573 59.8865Z" fill="#14B1E7"></path>
<path d="M144.128 59.886H142.881V53.1747H144.128V59.886Z" fill="#14B1E7"></path>
<path d="M139.361 53.1747V57.7807L135.891 53.1747H134.645V59.886H135.891V55.2804L139.361 59.886H140.608V53.1747H139.361Z" fill="#14B1E7"></path>
<path d="M122.277 59.8865L119.394 53.1748H120.641L123.032 58.7415L125.424 53.1748H126.671L123.788 59.8865H122.277Z" fill="#14B1E7"></path>
<path d="M111.356 55.678C110.955 55.5684 110.714 55.1577 110.816 54.7538L110.951 54.2179C110.483 53.9812 110.423 53.5186 110.532 53.2199C110.684 52.8014 111.164 52.5904 111.567 52.7369C111.787 52.817 111.972 52.9957 112.049 53.2344C112.127 53.4766 112.093 53.6534 111.928 54.106C111.862 54.2861 111.356 55.678 111.356 55.678Z" fill="#14B1E7"></path>
<path d="M147.796 54.2331H149.35C150.371 54.2331 150.929 54.7705 150.929 55.5834C150.929 56.396 150.371 56.9338 149.35 56.9338H147.796V54.2331ZM152.179 58.6686C151.496 58.6686 150.899 58.3142 150.548 57.7831C151.527 57.4704 152.179 56.7423 152.179 55.5685C152.179 53.9511 150.944 53.1748 149.314 53.1748H146.546V59.9041H147.796V57.9621H149.139C149.632 59.1573 150.805 60 152.179 60V58.6686Z" fill="#14B1E7"></path>
<path d="M90.1268 58.8314V59.8865H85.0933V53.1748H89.9925V54.2201V54.23H86.3396V55.9649H89.5804V56.9908H86.3396V58.8314H90.1268Z" fill="#14B1E7"></path>
<path d="M67.9956 58.073C67.5927 58.5912 66.964 58.9271 66.1599 58.9271C64.7029 58.9271 63.8185 57.8286 63.8185 56.5307C63.8185 55.2327 64.7029 54.1343 66.1599 54.1343C66.964 54.1343 67.5927 54.47 67.9956 54.9883L68.817 54.1668C68.1716 53.492 67.2387 53.0796 66.1599 53.0796C64.1081 53.0796 62.5718 54.562 62.5718 56.5307C62.5718 58.4997 64.1081 59.9817 66.1599 59.9817C67.2387 59.9817 68.1716 59.5693 68.817 58.8947L67.9956 58.073Z" fill="#14B1E7"></path>
<path d="M80.1993 57.1319H81.8275V58.4838C81.4541 58.7597 80.9797 58.9271 80.4167 58.9271C78.9598 58.9271 78.0753 57.8286 78.0753 56.5307C78.0753 55.2327 78.9598 54.1343 80.4167 54.1343C81.2208 54.1343 81.8496 54.47 82.2525 54.9883L83.0739 54.1668C82.4285 53.492 81.4955 53.0796 80.4167 53.0796C78.3649 53.0796 76.8286 54.562 76.8286 56.5307C76.8286 58.4997 78.3649 59.9817 80.4167 59.9817C81.4955 59.9817 82.4285 59.5693 83.0739 58.8947V56.106H80.1993V57.1319Z" fill="#14B1E7"></path>
<path d="M94.889 56.924H93.3391V54.2303H94.889C95.9077 54.2303 96.4643 54.7664 96.4643 55.577C96.4643 56.3875 95.9077 56.924 94.889 56.924ZM94.8537 53.1748H92.0928V59.8867H93.3391V57.9499H94.8537C96.4795 57.9499 97.7106 57.176 97.7106 55.5624C97.7106 53.9487 96.4795 53.1748 94.8537 53.1748Z" fill="#14B1E7"></path>
<path d="M71.5382 51.5754L71.68 52.3291L73.9295 51.9863C74.4613 51.9052 74.8343 51.4188 74.7753 50.8841L71.5382 51.5754ZM75.535 58.8314V59.8865H70.5015V53.1748H75.4007V54.2201V54.23H71.7478V55.9649H74.9883V56.9908H71.7478V58.8314H75.535Z" fill="#14B1E7"></path>
<path d="M118.501 6.51591V14.3436C118.501 16.2763 117.934 18.1077 115.377 18.1077C112.82 18.1077 112.254 16.2763 112.254 14.3436V6.51591H109.03V14.3639C109.03 19.4391 112.498 20.7703 115.377 20.7703C118.257 20.7703 121.724 19.4391 121.724 14.3639V6.51591H118.501Z" fill="white"></path>
<path d="M82.1584 9.17886H79.2163V17.8679H82.1584C85.0255 17.8679 86.8646 16.3048 86.8646 13.5232C86.8646 10.7416 85.0255 9.17886 82.1584 9.17886ZM90.0878 13.5232C90.0874 17.8676 86.8822 20.5305 82.1733 20.5305H75.9932V6.51593H82.1733C86.8822 6.51593 90.0874 9.17885 90.0878 13.5232Z" fill="white"></path>
<path d="M99.3976 18.1082C96.6319 18.1082 94.9528 16.0065 94.9528 13.5233C94.9528 11.0405 96.6319 8.93853 99.3976 8.93853C102.163 8.93853 103.842 11.0405 103.842 13.5233C103.842 16.0065 102.163 18.1082 99.3976 18.1082ZM99.3976 6.27594C95.0128 6.27594 91.73 9.38856 91.73 13.5233C91.73 17.6581 95.0128 20.7708 99.3976 20.7708C103.782 20.7708 107.065 17.6581 107.065 13.5233C107.065 9.38856 103.782 6.27594 99.3976 6.27594Z" fill="white"></path>
<path d="M127.829 15.0647L130.249 9.23389L132.669 15.0647H127.829ZM134.938 20.5303H138.151L132.334 6.51603H128.164L122.347 20.5303H125.56L126.782 17.5872H133.716L134.938 20.5303Z" fill="white"></path>
<path d="M160.381 9.17852H157.438V17.8676H160.381C163.247 17.8676 165.087 16.3045 165.087 13.5232C165.087 10.7416 163.247 9.17852 160.381 9.17852ZM168.31 13.5232C168.31 17.8676 165.104 20.5305 160.395 20.5305H154.215V6.51593H160.395C165.104 6.51593 168.31 9.17885 168.31 13.5232Z" fill="white"></path>
<path d="M142.988 9.15863H145.681C147.807 9.15863 148.695 10.1428 148.695 11.6306C148.695 13.1184 147.807 14.1026 145.681 14.1026H142.988V9.15863ZM148.898 16.0794C150.641 15.3801 151.918 13.9636 151.918 11.5706C151.918 7.90008 148.921 6.51606 145.832 6.51606H139.766V20.5303H142.988V16.6251H145.752C146.746 19.0561 149.129 20.7708 151.918 20.7708V17.7185C150.654 17.7185 149.544 17.0646 148.898 16.0794Z" fill="white"></path>
<path d="M64.5155 3.31557L64.8211 5.14624L69.7793 4.35198C71.0443 4.14918 71.9318 2.99542 71.8033 1.72094L64.5155 3.31557ZM73.423 17.8677V20.5303H62.5723V6.51603H73.1626V9.17861H65.7951V12.1617H72.3018V14.6845H65.7951V17.8677H73.423Z" fill="white"></path>
<path d="M168.465 40.5503H171.688V26.5371H168.465V40.5503Z" fill="white"></path>
<path d="M154.215 29.1993H158.71V40.5503H161.933V29.1993H166.427V26.5367H154.215V29.1993Z" fill="white"></path>
<path d="M173.725 26.5367V29.1993H178.22V40.5503H181.443V29.1993H185.937V26.5367H173.725Z" fill="white"></path>
<path d="M88.2955 38.1281C85.5299 38.1281 83.8508 36.0265 83.8508 33.5433C83.8508 31.0604 85.5299 28.9584 88.2955 28.9584C91.0609 28.9584 92.7399 31.0604 92.7399 33.5433C92.7399 36.0265 91.0609 38.1281 88.2955 38.1281ZM88.2955 26.2959C83.9108 26.2959 80.6279 29.4088 80.6279 33.5433C80.6279 37.6781 83.9108 40.791 88.2955 40.791C92.6799 40.791 95.9628 37.6781 95.9628 33.5433C95.9628 29.4088 92.6799 26.2959 88.2955 26.2959Z" fill="white"></path>
<path d="M113.045 29.1993H117.54V40.5503H120.763V29.1993H125.257V26.5367H113.045V29.1993Z" fill="white"></path>
<path d="M77.0757 26.536C75.6378 26.536 74.932 26.9257 73.9051 28.7089C72.8779 30.4924 70.47 34.7269 70.47 34.7269C70.47 34.7269 68.0621 30.4924 67.0352 28.7089C66.0079 26.9257 65.3025 26.536 63.8646 26.536H62.5718L62.5721 26.5367H62.5718V40.5503H65.7949V32.5235L69.7198 39.4009H71.2205L75.145 32.5235V40.5503H78.3682V26.5367H78.3679L78.3682 26.536H77.0757Z" fill="white"></path>
<path d="M107.852 35.5209C107.852 35.5209 104.013 30.2388 103.38 29.3478C101.81 27.1373 101.301 26.5367 99.5184 26.5367H98.2222V40.5503H101.445V31.5662C101.445 31.5662 105.286 36.8717 105.918 37.7392C107.514 39.931 107.997 40.5503 109.78 40.5503H111.076V26.5367H107.852V35.5209Z" fill="white"></path>
<path d="M133.142 34.1233H130.45V29.179H133.142C135.269 29.179 136.157 30.1635 136.157 31.651C136.157 33.1388 135.269 34.1233 133.142 34.1233ZM133.293 26.5364H127.227V40.551H130.45V36.6458H133.293C136.383 36.6458 139.38 35.2615 139.38 31.591C139.38 27.9208 136.383 26.5364 133.293 26.5364Z" fill="white"></path>
<path d="M144.55 34.7049H151.057V32.1824H144.55V29.1994H151.918V26.5364H141.328V40.551H152.178V37.8884H144.55V34.7049Z" fill="white"></path>
</svg>